<svg width="14" height="10" viewBox="0 0 14 10" fill="none" xmlns="http://www.w3.org/2000/svg">
<path fill-rule="evenodd" clip-rule="evenodd" d="M13.047 0.561612C12.6871 0.201706 12.1035 0.201706 11.7436 0.561611L5.32422 6.98102L2.12138 3.77818C1.73086 3.38766 1.09769 3.38766 0.70717 3.77818C0.316645 4.16871 0.316645 4.80187 0.707169 5.1924L4.50629 8.99152C4.51579 9.00102 4.52543 9.01028 4.53521 9.01932C4.5438 9.02865 4.55263 9.03784 4.56168 9.04689C4.92159 9.4068 5.50511 9.4068 5.86502 9.04689L5.9113 9.00061C5.91438 8.9976 5.91745 8.99457 5.92051 8.99152C5.92356 8.98846 5.92659 8.98539 5.9296 8.98231L13.047 1.86495C13.4069 1.50504 13.4069 0.921517 13.047 0.561612Z" fill="white"/>
</svg>
