<svg width="81" height="80" viewBox="0 0 81 80" fill="none" xmlns="http://www.w3.org/2000/svg">
<path d="M5.67676 78.3337C5.67676 79.267 6.42672 80.0004 7.34351 80.0004H28.8613V54.699C28.8613 50.1488 31.9614 46.432 35.7783 46.432H44.2454C48.0456 46.432 51.1457 50.1488 51.1457 54.699V80.0004H72.6636C73.597 80.0004 74.3303 79.267 74.3303 78.3337V37.248H5.67676V78.3337Z" fill="#6245C6"/>
<path d="M79.3803 30.9308L41.045 0.362491C40.445 -0.12083 39.5783 -0.12083 38.9616 0.362491L0.626231 30.9308C0.0761738 31.3808 -0.140411 32.1141 0.0928576 32.7976C0.326227 33.4642 0.959602 33.9142 1.67629 33.9142H78.347C79.047 33.9142 79.6803 33.4642 79.9137 32.7976C80.1471 32.1141 79.9304 31.3808 79.3803 30.9308ZM45.0408 18.6212H34.9743C34.0539 18.6212 33.3076 17.8749 33.3076 16.9544C33.3076 16.034 34.0539 15.2877 34.9743 15.2877H45.0408C45.9612 15.2877 46.7075 16.034 46.7075 16.9544C46.7075 17.8749 45.9612 18.6212 45.0408 18.6212Z" fill="#6245C6"/>
</svg>
