<svg width="56" height="80" viewBox="0 0 56 80" fill="none" xmlns="http://www.w3.org/2000/svg">
<path d="M27.9828 27.1026C35.2892 27.1026 41.2122 21.0355 41.2122 13.5513C41.2122 6.06712 35.2892 0 27.9828 0C20.6764 0 14.7534 6.06712 14.7534 13.5513C14.7534 21.0355 20.6764 27.1026 27.9828 27.1026Z" fill="#6245C6"/>
<path d="M27.9846 41.8637C33.6597 41.8637 38.2766 37.0698 38.2766 31.3213H17.6909C17.6909 37.0698 22.3078 41.8637 27.9846 41.8637Z" fill="#6245C6"/>
<path d="M43.3953 31.4298C43.3373 39.1766 37.797 45.6105 30.579 46.8518V59.5744C30.579 66.1271 25.7453 71.8808 19.3585 72.2515C12.7464 72.6361 7.19073 67.4436 6.79646 60.8506C5.04529 59.8069 3.95636 57.7106 4.38135 55.4081C4.75855 53.3556 6.41756 51.6824 8.42987 51.3345C11.5943 50.7855 14.3337 53.2646 14.3337 56.4011C14.3337 58.2753 13.354 59.9153 11.8895 60.8139C12.2633 64.5204 15.4824 67.3736 19.2697 67.0222C22.8233 66.6935 25.4244 63.398 25.4244 59.7422V46.8483C18.2098 45.6087 12.6661 39.1731 12.6081 31.4263C5.48223 32.3686 0 38.6049 0 46.1594V73.4666C0 77.0734 2.85718 80.0001 6.3783 80.0001H49.62C53.1428 80.0001 56 77.0751 56 73.4666V46.1629C56.0051 38.6084 50.5212 32.3721 43.3953 31.4298Z" fill="#6245C6"/>
</svg>
