<svg width="81" height="80" viewBox="0 0 81 80" fill="none" xmlns="http://www.w3.org/2000/svg">
<path d="M25.4998 54.9438L26.6794 53.6183C25.8176 50.8639 25.8153 47.8316 26.7359 45.0316C19.9562 48.7563 11.3731 47.272 6.24946 41.2119C2.44394 44.23 0 48.8935 0 54.1171V77.6467C0 78.9456 1.05413 79.9997 2.35296 79.9997H21.7382C21.4763 79.264 21.3335 78.4718 21.3335 77.6467V65.8819C21.3335 61.8474 22.8127 57.9619 25.4998 54.9438Z" fill="#6245C6"/>
<path d="M18.8239 42.3528C25.3214 42.3528 30.5887 37.0856 30.5887 30.588C30.5887 24.0905 25.3214 18.8232 18.8239 18.8232C12.3264 18.8232 7.05908 24.0905 7.05908 30.588C7.05908 37.0856 12.3264 42.3528 18.8239 42.3528Z" fill="#6245C6"/>
<path d="M74.0651 41.2119C68.9322 47.283 60.3431 48.751 53.5786 45.03C54.4978 47.8357 54.498 50.8602 53.6351 53.6183L54.8147 54.9438C57.5018 57.9619 58.981 61.8474 58.981 65.8819V77.6467C58.981 78.4718 58.8383 79.264 58.5763 79.9997H77.9616C79.2604 79.9997 80.3145 78.9456 80.3145 77.6467V54.1171C80.3145 48.8935 77.8706 44.23 74.0651 41.2119Z" fill="#6245C6"/>
<path d="M61.4909 42.3528C67.9884 42.3528 73.2557 37.0856 73.2557 30.588C73.2557 24.0905 67.9884 18.8232 61.4909 18.8232C54.9934 18.8232 49.7261 24.0905 49.7261 30.588C49.7261 37.0856 54.9934 42.3528 61.4909 42.3528Z" fill="#6245C6"/>
<path d="M40.1573 63.5296C35.6334 63.5296 31.6004 61.3915 29.0153 58.0723C27.1643 60.1523 26.0396 62.888 26.0396 65.8825V77.6473C26.0396 78.9462 27.0937 80.0003 28.3925 80.0003H51.9221C53.221 80.0003 54.2751 78.9462 54.2751 77.6473V65.8825C54.2751 62.888 53.1504 60.1523 51.2994 58.0723C48.7143 61.3915 44.6813 63.5296 40.1573 63.5296Z" fill="#6245C6"/>
<path d="M40.157 58.8237C45.355 58.8237 49.5688 54.6099 49.5688 49.4118C49.5688 44.2138 45.355 40 40.157 40C34.9589 40 30.7451 44.2138 30.7451 49.4118C30.7451 54.6099 34.9589 58.8237 40.157 58.8237Z" fill="#6245C6"/>
<path d="M33.4619 18.9789C36.1484 21.4618 38.8115 23.1108 38.9235 23.1798C39.68 23.6453 40.6339 23.6453 41.3905 23.1798C41.5026 23.1108 44.1655 21.4618 46.852 18.9789C50.7366 15.389 52.7062 11.8989 52.7062 8.60584C52.7062 1.12719 45.2692 -2.38327 40.157 1.77128C35.0334 -2.39252 27.6079 1.14696 27.6079 8.60584C27.6079 11.8989 29.5775 15.389 33.4619 18.9789Z" fill="#6245C6"/>
</svg>
